simulation
nRows=50
nColumns=15
endheader
time  TH_x TH_y TH_z SC_y  SC_z  SC_x  AC_y  AC_z  AC_x  GH_y  GH_z  GH_yy  EL_x  PS_y
0.770000  0.000000  0.000000  0.000000  -28.821086  -1.013937  2.408866  65.594279  18.094781  4.183713  57.766859  45.116443  -72.822936  26.669804  0.000000
0.780000  0.000000  0.000000  0.000000  -28.860975  -1.005734  2.304332  65.843296  17.934240  4.298776  57.985000  44.930186  -72.822936  26.819206  0.000000
0.790000  0.000000  0.000000  0.000000  -28.780365  -1.023010  2.229641  65.931891  17.863021  4.302219  58.066270  44.886502  -72.822936  26.817197  0.000000
0.800000  0.000000  0.000000  0.000000  -28.751174  -1.126940  2.152651  66.035086  17.761759  4.358107  58.170669  44.797673  -72.822936  26.848046  0.000000
0.810000  0.000000  0.000000  0.000000  -28.671391  -1.136389  2.078433  66.131704  17.692314  4.360921  58.259375  44.751999  -72.822936  26.850868  0.000000
0.820000  0.000000  0.000000  0.000000  -28.940784  -1.047034  2.787824  66.444503  17.464701  4.274904  59.249159  44.207163  -72.822936  27.308499  0.000000
0.830000  0.000000  0.000000  0.000000  -28.860354  -1.061426  2.712401  66.535284  17.393348  4.277605  59.333330  44.172728  -72.822936  27.308053  0.000000
0.840000  0.000000  0.000000  0.000000  -28.826065  -1.152372  2.618747  66.645442  17.287094  4.313006  59.453469  44.123981  -72.822936  27.333716  0.000000
0.850000  0.000000  0.000000  0.000000  -28.747406  -1.164387  2.547692  66.739242  17.220718  4.315865  59.540474  44.087910  -72.822936  27.336044  0.000000
0.860000  0.000000  0.000000  0.000000  -28.732425  -1.261131  2.467003  66.878308  17.130707  4.354153  59.693419  44.011900  -72.822936  27.381192  0.000000
0.870000  0.000000  0.000000  0.000000  -28.652988  -1.270510  2.401054  66.971599  17.069944  4.356678  59.778796  43.976310  -72.822936  27.383444  0.000000
0.880000  0.000000  0.000000  0.000000  -28.687120  -1.365340  2.451581  67.293375  17.125263  4.400797  60.113628  43.686378  -72.822936  27.505965  0.000000
0.890000  0.000000  0.000000  0.000000  -28.610947  -1.385444  2.389347  67.377303  17.064235  4.409650  60.187915  43.655100  -72.822936  27.504479  0.000000
0.900000  0.000000  0.000000  0.000000  -28.584176  -1.490114  2.342705  67.481491  17.000651  4.458099  60.279175  43.585132  -72.822936  27.516628  0.000000
0.910000  0.000000  0.000000  0.000000  -28.513018  -1.502458  2.283453  67.569084  16.944812  4.463536  60.356440  43.552094  -72.822936  27.518732  0.000000
0.920000  0.000000  0.000000  0.000000  -28.590593  -1.636781  2.798088  68.121183  16.815729  4.533063  60.651493  42.909842  -72.822936  27.951974  0.000000
0.930000  0.000000  0.000000  0.000000  -28.523691  -1.648681  2.739896  68.201117  16.759853  4.539418  60.724787  42.890041  -72.822936  27.952637  0.000000
0.940000  0.000000  0.000000  0.000000  -28.517137  -1.717201  2.678692  68.299533  16.694170  4.563206  60.831747  42.876817  -72.822936  27.965430  0.000000
0.950000  0.000000  0.000000  0.000000  -28.453915  -1.728128  2.626793  68.380339  16.645530  4.568834  60.905017  42.856251  -72.822936  27.967912  0.000000
0.960000  0.000000  0.000000  0.000000  -28.589989  -1.798592  2.688646  68.701059  16.749128  4.539977  61.229037  42.767574  -72.822936  28.010631  0.000000
0.970000  0.000000  0.000000  0.000000  -28.529879  -1.817419  2.640759  68.771124  16.702552  4.547667  61.290569  42.748106  -72.822936  28.007657  0.000000
0.980000  0.000000  0.000000  0.000000  -28.527301  -1.919423  2.606893  68.868183  16.665614  4.571199  61.374488  42.717690  -72.822936  28.001451  0.000000
0.990000  0.000000  0.000000  0.000000  -28.472983  -1.930096  2.563429  68.940704  16.625768  4.574894  61.436859  42.697778  -72.822936  28.002652  0.000000
1.000000  0.000000  0.000000  0.000000  -28.643327  -2.098542  2.674679  69.346743  16.796351  4.527870  61.705041  42.560950  -72.822936  28.031782  0.000000
1.010000  0.000000  0.000000  0.000000  -28.591106  -2.114958  2.633927  69.407237  16.755988  4.536622  61.754344  42.547996  -72.822936  28.030888  0.000000
1.020000  0.000000  0.000000  0.000000  -28.587264  -2.198200  2.590940  69.484362  16.709660  4.556206  61.802999  42.532017  -72.822936  28.032178  0.000000
1.030000  0.000000  0.000000  0.000000  -28.542473  -2.210783  2.557293  69.547105  16.678007  4.562972  61.852820  42.520580  -72.822936  28.036119  0.000000
1.040000  0.000000  0.000000  0.000000  -28.907751  -2.462437  2.914951  70.175473  16.734396  4.334575  62.134553  42.312919  -72.822936  28.328816  0.000000
1.050000  0.000000  0.000000  0.000000  -28.867144  -2.472883  2.881478  70.225650  16.701936  4.340476  62.180759  42.306723  -72.822936  28.332895  0.000000
1.060000  0.000000  0.000000  0.000000  -28.867668  -2.524206  2.845563  70.290232  16.667020  4.349650  62.248257  42.313671  -72.822936  28.355609  0.000000
1.070000  0.000000  0.000000  0.000000  -28.835255  -2.535106  2.821498  70.338150  16.644046  4.356679  62.290393  42.311138  -72.822936  28.362688  0.000000
1.080000  0.000000  0.000000  0.000000  -29.006028  -2.648113  2.890567  70.603490  16.774879  4.271029  62.515189  42.340415  -72.822936  28.475241  0.000000
1.090000  0.000000  0.000000  0.000000  -28.978503  -2.662590  2.863718  70.639589  16.749651  4.272792  62.545952  42.330849  -72.822936  28.472018  0.000000
1.100000  0.000000  0.000000  0.000000  -28.999157  -2.738769  2.839925  70.691455  16.727974  4.279108  62.582537  42.330415  -72.822936  28.473478  0.000000
1.110000  0.000000  0.000000  0.000000  -28.977824  -2.748987  2.823352  70.732037  16.713536  4.282533  62.613761  42.328315  -72.822936  28.478327  0.000000
1.120000  0.000000  0.000000  0.000000  -29.079609  -2.855590  2.822043  70.856606  16.729778  4.274766  62.685527  42.347177  -72.822936  28.531282  0.000000
1.130000  0.000000  0.000000  0.000000  -29.061410  -2.858434  2.811560  70.895389  16.723753  4.272164  62.712202  42.343167  -72.822936  28.535625  0.000000
1.140000  0.000000  0.000000  0.000000  -29.276247  -3.007590  2.860605  71.132960  16.827862  4.206785  62.806372  42.361950  -72.822936  28.639207  0.000000
1.150000  0.000000  0.000000  0.000000  -29.258907  -3.009757  2.851518  71.157915  16.821146  4.205945  62.822429  42.357982  -72.822936  28.638584  0.000000
1.160000  0.000000  0.000000  0.000000  -29.249542  -3.016376  2.843360  71.180196  16.814865  4.206240  62.836072  42.356002  -72.822936  28.640620  0.000000
1.170000  0.000000  0.000000  0.000000  -29.657261  -3.238757  2.909828  71.588542  16.998324  4.019675  62.840322  42.349286  -72.822936  28.762857  0.000000
1.180000  0.000000  0.000000  0.000000  -29.649979  -3.246203  2.900967  71.600243  16.989049  4.022725  62.845551  42.348587  -72.822936  28.761056  0.000000
1.190000  0.000000  0.000000  0.000000  -29.648141  -3.247847  2.899326  71.603119  16.987189  4.023972  62.847316  42.348986  -72.822936  28.761401  0.000000
1.200000  0.000000  0.000000  0.000000  -29.679415  -3.292688  2.872726  71.627290  16.958112  4.035003  62.843941  42.359267  -72.822936  28.778317  0.000000
1.210000  0.000000  0.000000  0.000000  -29.680195  -3.293564  2.872053  71.630232  16.957527  4.035482  62.844337  42.360412  -72.822936  28.780309  0.000000
1.220000  0.000000  0.000000  0.000000  -29.680464  -3.293855  2.872068  71.630608  16.957496  4.035745  62.844284  42.360814  -72.822936  28.780803  0.000000
1.230000  0.000000  0.000000  0.000000  -29.681481  -3.293990  2.872033  71.630389  16.957496  4.035604  62.843776  42.360998  -72.822936  28.781310  0.000000
1.240000  0.000000  0.000000  0.000000  -29.802298  -3.350762  2.850574  71.687576  16.934641  4.055388  62.822764  42.425766  -72.822936  28.912591  0.000000
1.250000  0.000000  0.000000  0.000000  -29.815726  -3.344153  2.856823  71.680916  16.943555  4.046359  62.810814  42.423544  -72.822936  28.916599  0.000000
1.260000  0.000000  0.000000  0.000000  -29.830136  -3.340141  2.862467  71.674708  16.951025  4.039881  62.798991  42.423780  -72.822936  28.923252  0.000000
